<svg width="2400" height="1200" fill="none" xmlns="http://www.w3.org/2000/svg">
  <g clip-path="url(#a)">
    <path d="M1200.69 309c51.61 0 93.44-41.838 93.44-93.448 0-51.609-41.83-93.447-93.44-93.447s-93.45 41.838-93.45 93.447c0 51.61 41.84 93.448 93.45 93.448Zm0 0c-51.61 0-93.45 41.838-93.45 93.448 0 51.609 41.84 93.447 93.45 93.447s93.44-41.838 93.44-93.447c0-51.61-41.83-93.448-93.44-93.448Zm0 0c-25.81-44.695-82.96-60.009-127.66-34.204-44.69 25.805-60.01 82.956-34.2 127.652 25.8 44.695 82.96 60.008 127.65 34.204 44.7-25.805 60.01-82.957 34.21-127.652Zm0 0c25.8 44.695 82.95 60.009 127.65 34.204 44.69-25.805 60.01-82.956 34.2-127.652-25.8-44.695-82.96-60.008-127.65-34.204-44.7 25.805-60.01 82.957-34.2 127.652Zm0 0c-25.81 44.695-10.5 101.847 34.2 127.652 44.69 25.804 101.85 10.491 127.65-34.204 25.81-44.696 10.49-101.847-34.2-127.652-44.7-25.805-101.85-10.491-127.65 34.204Zm0 0c25.8-44.695 10.49-101.847-34.21-127.652-44.69-25.804-101.85-10.491-127.65 34.204-25.81 44.696-10.49 101.847 34.2 127.652 44.7 25.805 101.85 10.491 127.66-34.204Zm19.27-666.209 72.65 411.667c14.61 82.78 79.42 147.591 162.2 162.199l411.66 72.647c22.04 3.889 22.04 35.504 0 39.392l-411.66 72.647c-82.78 14.608-147.59 79.419-162.2 162.199l-72.65 411.667c-3.89 22.033-35.5 22.032-39.39 0l-72.65-411.667c-14.61-82.78-79.42-147.591-162.197-162.199l-411.667-72.647c-22.032-3.888-22.032-35.503 0-39.392l411.667-72.647c82.777-14.608 147.587-79.419 162.197-162.1992l72.65-411.6668c3.89-22.032 35.5-22.032 39.39 0Zm-335.742 79.407L1152.97 42.3887c54.04 64.3853 142.57 88.1083 221.56 59.3693l392.84-142.9194c21.03-7.649 36.83 19.7307 19.7 34.114L1466.88 261.7c-64.39 54.041-88.11 142.575-59.37 221.569l142.92 392.837c7.65 21.025-19.73 36.832-34.12 19.696l-268.74-320.19c-54.05-64.386-142.58-88.109-221.57-59.37l-392.841 142.92c-21.024 7.649-36.832-19.731-19.695-34.114L933.654 356.3c64.386-54.041 88.106-142.575 59.369-221.569L850.104-258.106c-7.649-21.025 19.73-36.832 34.114-19.696ZM633.159-41.1611 1026 101.758c78.99 28.739 167.52 5.016 221.57-59.3693l268.74-320.1907c14.39-17.136 41.77-1.328 34.12 19.696l-142.92 392.837c-28.74 78.994-5.02 167.528 59.37 221.569l320.19 268.748c17.13 14.383 1.33 41.763-19.7 34.114l-392.84-142.92c-78.99-28.739-167.52-5.016-221.56 59.37l-268.752 320.19c-14.384 17.137-41.763 1.329-34.114-19.696l142.919-392.837c28.737-78.994 5.016-167.528-59.369-221.569L613.464-7.0474c-17.137-14.3833-1.329-41.7628 19.695-34.1137ZM1103.98-350.507 1247 42.2903c28.77 78.9857 103.85 131.5577 187.91 131.5697l418.02.058c22.38.003 27.87 31.138 6.84 38.793L1466.98 355.74c-78.99 28.761-131.56 103.841-131.57 187.901l-.06 418.027c-.01 22.373-31.14 27.863-38.8 6.84l-143.02-392.797c-28.76-78.986-103.85-131.558-187.905-131.57l-418.027-.058c-22.373-.003-27.863-31.138-6.84-38.793l392.797-143.029c78.985-28.76 131.555-103.841 131.565-187.9006l.06-418.0274c.01-22.373 31.14-27.863 38.8-6.84ZM787.122-214.006 1107.39 54.6528c64.4 54.0232 155.71 62.0112 228.51 19.992l362.05-208.9628c19.38-11.184 39.7 13.035 25.32 30.175l-268.66 320.265c-54.02 64.401-62.01 155.709-19.99 228.512l208.96 362.052c11.19 19.377-13.03 39.698-30.17 25.32l-320.27-268.659c-64.4-54.023-155.71-62.011-228.51-19.992L702.58 752.319c-19.377 11.183-39.699-13.035-25.32-30.176l268.658-320.265c54.023-64.401 62.012-155.708 19.992-228.512L756.947-188.685c-11.184-19.377 13.035-39.699 30.175-25.321ZM580.97 62.635l411.687 72.532c82.783 14.586 165.853-24.15 207.893-96.9419l209.06-361.9931c11.19-19.374 40.9-8.561 37.02 13.473l-72.53 411.686c-14.59 82.785 24.15 165.854 96.94 207.894l361.99 209.064c19.38 11.189 8.56 40.897-13.47 37.016l-411.69-72.533c-82.78-14.585-165.85 24.151-207.89 96.942L990.916 941.768c-11.189 19.374-40.898 8.56-37.016-13.473l72.53-411.687c14.59-82.784-24.15-165.853-96.94-207.893L567.497 99.6506c-19.374-11.1891-8.56-40.8975 13.473-37.0156Zm409.946-386.403L1199.98 38.2256c42.04 72.7914 125.11 111.5274 207.89 96.9414l411.69-72.5317c22.03-3.882 32.85 25.8267 13.47 37.0158L1471.04 308.715c-72.79 42.04-111.53 125.109-96.94 207.893l72.53 411.687c3.88 22.034-25.83 32.847-37.02 13.473l-209.06-361.994c-42.04-72.791-125.11-111.527-207.893-96.942L580.97 555.365c-22.034 3.882-32.847-25.827-13.473-37.016l361.994-209.064c72.789-42.04 111.529-125.109 96.939-207.894l-72.529-411.686c-3.882-22.034 25.826-32.847 37.015-13.473ZM702.58-134.319l362.05 208.9638c72.8 42.0192 164.11 34.0312 228.51-19.9925l320.27-268.6583c17.14-14.378 41.36 5.943 30.17 25.32l-208.96 362.052c-42.02 72.803-34.03 164.111 19.99 228.512l268.66 320.265c14.38 17.141-5.94 41.359-25.32 30.175L1335.9 543.355c-72.8-42.019-164.11-34.031-228.51 19.992L787.122 832.006c-17.14 14.378-41.359-5.944-30.175-25.321L965.91 444.634c42.02-72.804 34.031-164.111-19.992-228.512L677.26-104.143c-14.379-17.141 5.943-41.359 25.32-30.176ZM547.598 173.918l418.027-.059c84.055-.011 159.145-52.584 187.905-131.5694l143.02-392.7976c7.66-21.022 38.79-15.532 38.8 6.841l.06 418.0271c.01 84.0589 52.58 159.1399 131.57 187.9009l392.79 143.029c21.03 7.654 15.54 38.789-6.84 38.793l-418.02.058c-84.06.011-159.14 52.584-187.91 131.569l-143.02 392.798c-7.66 21.022-38.79 15.532-38.8-6.841l-.06-418.027c-.01-84.059-52.58-159.14-131.565-187.901L540.758 212.71c-21.023-7.654-15.533-38.789 6.84-38.792ZM1161.82-356.39l108.25 403.7687c21.77 81.1923 91.98 140.1073 175.72 147.4453l416.43 36.492c22.29 1.953 25.05 33.448 3.44 39.241l-403.77 108.25c-81.19 21.767-140.11 91.98-147.45 175.719l-36.49 416.432c-1.95 22.287-33.45 25.043-39.24 3.433l-108.25-403.769c-21.77-81.192-91.98-140.108-175.72-147.445l-416.432-36.492c-22.287-1.953-25.043-33.448-3.433-39.241l403.769-108.25c81.196-21.768 140.106-91.981 147.446-175.7191l36.49-416.4319c1.95-22.287 33.45-25.043 39.24-3.433ZM834.277-248.024 1129.91 47.5254c59.45 59.4306 149.71 75.3466 225.9 39.832l378.88-176.6133c20.28-9.4523 38.42 16.4455 22.6 32.2676L1461.74 238.643c-59.43 59.447-75.35 149.711-39.83 225.9l176.61 378.886c9.45 20.278-16.44 38.412-32.27 22.594l-295.63-295.549c-59.45-59.43-149.71-75.347-225.9-39.832L665.836 707.255c-20.278 9.453-38.412-16.445-22.594-32.267l295.549-295.632c59.431-59.447 75.349-149.711 39.832-225.899L802.01-225.43c-9.453-20.278 16.445-38.411 32.267-22.594ZM604.799 9.5972 1008.6 117.734c81.2 21.745 167.32-9.603 215.55-78.454l239.82-342.395c12.83-18.325 41.49-4.963 35.7 16.648l-108.14 403.799c-21.74 81.198 9.6 167.327 78.45 215.551l342.4 239.818c18.32 12.835 4.96 41.488-16.65 35.701l-403.8-108.137c-81.19-21.745-167.32 9.603-215.55 78.454L936.563 921.114c-12.835 18.324-41.488 4.963-35.7-16.648L1009 500.667c21.75-81.198-9.604-167.327-78.454-215.551L588.151 45.2976c-18.325-12.8351-4.964-41.488 16.648-35.7004ZM1046.86-339.605l176.72 378.8367c35.54 76.1783 114.91 122.0063 198.65 114.6923l416.45-36.375c22.28-1.947 30.47 28.591 10.19 38.049l-378.84 176.718c-76.17 35.536-122 114.913-114.69 198.653l36.38 416.442c1.94 22.288-28.59 30.471-38.05 10.195L1176.95 578.77c-35.54-76.179-114.91-122.007-198.654-114.693l-416.442 36.376c-22.287 1.946-30.47-28.591-10.195-38.049l378.837-176.719c76.174-35.536 122.004-114.913 114.694-198.6535L1008.81-329.41c-1.94-22.288 28.59-30.471 38.05-10.195ZM743.111-176.008 1085.57 63.7153c68.87 48.2047 160.52 48.2047 229.39 0l342.46-239.7233c18.33-12.83 40.68 9.526 27.85 27.854l-239.72 342.462c-48.2 68.864-48.2 160.52 0 229.384l239.72 342.462c12.83 18.328-9.52 40.684-27.85 27.854l-342.46-239.723c-68.87-48.205-160.52-48.205-229.39 0L743.111 794.008c-18.328 12.83-40.683-9.526-27.853-27.854l239.723-342.462c48.209-68.864 48.209-160.52-.001-229.384L715.258-148.154c-12.83-18.328 9.525-40.684 27.853-27.854ZM561.855 117.548l416.441 36.375c83.744 7.315 163.114-38.514 198.654-114.6923l176.72-378.8367c9.46-20.276 39.99-12.093 38.05 10.195l-36.38 416.442c-7.31 83.74 38.52 163.117 114.69 198.653l378.84 176.719c20.28 9.458 12.09 39.996-10.19 38.049l-416.45-36.376c-83.74-7.314-163.11 38.514-198.65 114.693l-176.72 378.837c-9.46 20.275-39.99 12.092-38.05-10.196l36.38-416.441c7.31-83.741-38.52-163.118-114.694-198.653L551.659 155.597c-20.275-9.458-12.092-39.996 10.196-38.049Zm374.708-420.663L1176.38 39.2803c48.23 68.8507 134.36 100.1987 215.55 78.4537l403.8-108.1368c21.61-5.7875 34.97 22.8656 16.65 35.7007l-342.4 239.8181c-68.85 48.224-100.19 134.354-78.45 215.552l108.14 403.798c5.79 21.612-22.87 34.973-35.7 16.648l-239.82-342.395c-48.23-68.851-134.35-100.199-215.55-78.454L604.799 608.402c-21.612 5.788-34.973-22.866-16.648-35.701l342.395-239.818c68.85-48.224 100.194-134.353 78.454-215.551L900.863-286.467c-5.788-21.611 22.865-34.972 35.7-16.648ZM665.836-89.2559 1044.72 87.3574c76.19 35.5146 166.45 19.5986 225.9-39.8323l295.63-295.5491c15.83-15.818 41.72 2.316 32.27 22.594l-176.61 378.886c-35.52 76.189-19.6 166.453 39.83 225.9l295.55 295.632c15.82 15.822-2.32 41.719-22.6 32.267l-378.88-176.613c-76.19-35.515-166.45-19.598-225.9 39.832L834.277 866.023c-15.822 15.818-41.72-2.316-32.267-22.594l176.613-378.886c35.517-76.189 19.598-166.453-39.832-225.9L643.242-56.9885c-15.818-15.8222 2.316-41.7197 22.594-32.2674ZM538.308 231.315l416.432-36.492c83.74-7.337 153.95-66.253 175.72-147.4453l108.25-403.7687c5.79-21.61 37.29-18.854 39.24 3.433l36.49 416.4321c7.34 83.7389 66.26 153.9519 147.45 175.7189l403.77 108.25c21.61 5.793 18.85 37.288-3.44 39.241l-416.43 36.492c-83.74 7.338-153.95 66.254-175.72 147.446L1161.82 974.39c-5.79 21.61-37.29 18.854-39.24-3.433l-36.49-416.432c-7.34-83.738-66.25-153.951-147.446-175.719l-403.769-108.25c-21.61-5.793-18.854-37.288 3.433-39.241ZM1219.96-2668.74l419.38 2376.469c14.61 82.78 79.42 147.592 162.2 162.2l2376.47 419.377c22.03 3.888 22.03 35.503 0 39.391L1801.54 748.074c-82.78 14.608-147.59 79.419-162.2 162.199L1219.96 3286.74c-3.89 22.03-35.5 22.03-39.39 0L761.193 910.273c-14.608-82.78-79.42-147.591-162.2-162.199L-1777.48 328.697c-22.03-3.888-22.03-35.503 0-39.391L598.993-130.071c82.78-14.608 147.592-79.42 162.2-162.2L1180.57-2668.74c3.89-22.03 35.5-22.03 39.39 0Zm-1491.508 389.09L1279.88-431.252c54.04 64.385 142.57 88.108 221.57 59.369l2267.77-825.047c21.02-7.65 36.83 19.73 19.69 34.12L1940.52 388.613c-64.39 54.041-88.11 142.575-59.37 221.568l825.04 2267.769c7.65 21.03-19.73 36.83-34.11 19.7l-1551.43-1848.4c-54.04-64.382-142.571-88.104-221.565-59.365L-1368.69 1814.93c-21.02 7.65-36.83-19.73-19.69-34.12L460.012 229.389c64.386-54.041 88.109-142.5753 59.37-221.5692L-305.662-2259.95c-7.649-21.03 19.731-36.83 34.114-19.7ZM-1368.69-1196.93 899.085-371.884c78.994 28.739 167.525 5.017 221.565-59.368L2672.08-2279.65c14.38-17.13 41.76-1.33 34.11 19.7L1881.15 7.82c-28.74 78.994-5.02 167.528 59.37 221.569L3788.91 1780.81c17.14 14.39 1.33 41.77-19.69 34.12L1501.45 989.885c-79-28.739-167.53-5.017-221.57 59.365l-1551.428 1848.4c-14.383 17.13-41.763 1.33-34.114-19.7L519.382 610.181c28.739-78.994 5.016-167.527-59.37-221.568L-1388.38-1162.81c-17.14-14.39-1.33-41.77 19.69-34.12ZM702.583-2626.92 1528.26-359.379c28.76 78.986 103.84 131.558 187.9 131.57l2413.19.336c22.37.003 27.86 31.138 6.84 38.793L1868.65 636.995c-78.99 28.761-131.56 103.842-131.57 187.901l-.34 2413.194c0 22.37-31.14 27.86-38.79 6.84L872.273 977.385c-28.761-78.986-103.842-131.558-187.901-131.57l-2413.192-.336c-22.37-.003-27.86-31.138-6.84-38.793L531.884-18.9895C610.87-47.7503 663.442-122.831 663.453-206.891l.337-2413.189c.003-22.37 31.138-27.86 38.793-6.84Zm-1401.285 642.18L1150.12-433.831c64.4 54.023 155.71 62.012 228.52 19.992L3468.69-1620.14c19.37-11.19 39.7 13.03 25.32 30.17L1943.1 258.86c-54.03 64.4-62.01 155.708-20 228.512L3129.41 2577.42c11.18 19.38-13.04 39.7-30.18 25.32L1250.41 1051.83c-64.4-54.021-155.71-62.01-228.52-19.99l-2090.05 1206.3c-19.37 11.19-39.7-13.03-25.32-30.17L457.434 359.142c54.023-64.401 62.012-155.709 19.992-228.512L-728.877-1959.42c-11.184-19.38 13.035-39.7 30.175-25.32ZM-1591.16-727.957 785.426-309.242c82.784 14.585 165.853-24.151 207.893-96.942L2200.2-2495.9c11.19-19.37 40.9-8.56 37.02 13.47L1818.51-105.841c-14.59 82.7847 24.15 165.8539 96.94 207.894L4005.16 1308.94c19.38 11.19 8.56 40.9-13.47 37.01L1615.1 927.239c-82.78-14.585-165.85 24.151-207.89 96.941L200.326 3113.9c-11.19 19.37-40.898 8.56-37.016-13.48L582.025 723.838c14.585-82.784-24.151-165.854-96.943-207.893L-1604.63-690.941c-19.38-11.189-8.56-40.897 13.47-37.016ZM200.326-2495.9 1407.21-406.182c42.04 72.791 125.11 111.527 207.89 96.942l2376.59-418.715c22.03-3.882 32.85 25.827 13.47 37.016L1915.45 515.946c-72.79 42.04-111.53 125.109-96.94 207.894l418.71 2376.59c3.88 22.03-25.83 32.84-37.02 13.47L993.319 1024.18c-42.04-72.789-125.109-111.525-207.893-96.94l-2376.586 418.72c-22.03 3.88-32.85-25.83-13.47-37.02L485.083 102.054c72.791-42.0394 111.527-125.1091 96.942-207.893L163.31-2482.43c-3.882-22.03 25.827-32.84 37.016-13.47Zm-1268.486 875.76L1021.9-413.84c72.8 42.02 164.11 34.031 228.51-19.992L3099.23-1984.74c17.14-14.38 41.36 5.94 30.18 25.32L1923.11 130.629c-42.02 72.803-34.04 164.111 19.99 228.512L3494.01 2207.97c14.38 17.14-5.95 41.36-25.32 30.17l-2090.05-1206.3c-72.81-42.021-164.11-34.032-228.52 19.99L-698.702 2602.74c-17.14 14.38-41.359-5.94-30.175-25.32L477.426 487.37c42.02-72.803 34.032-164.111-19.992-228.512L-1093.48-1589.97c-14.38-17.14 5.95-41.36 25.32-30.17Zm-660.66 1392.664 2413.193-.336c84.059-.011 159.14-52.584 187.9-131.569L1697.95-2626.92c7.65-21.02 38.79-15.53 38.79 6.84l.34 2413.187c.01 84.06 52.58 159.1402 131.57 187.9013L4136.19 806.683c21.02 7.655 15.53 38.79-6.84 38.793l-2413.19.336c-84.06.012-159.14 52.584-187.9 131.57L702.583 3244.92c-7.655 21.03-38.79 15.54-38.793-6.84l-.336-2413.186c-.012-84.06-52.584-159.14-131.57-187.901L-1735.66-188.683c-21.02-7.655-15.53-38.789 6.84-38.793ZM960.36-2659.12l624.9 2330.87c21.77 81.192 91.98 140.108 175.72 147.446L4164.96 29.8542c22.29 1.9532 25.04 33.4479 3.43 39.2415L1837.52 694c-81.19 21.767-140.11 91.981-147.45 175.719L1479.41 3273.7c-1.95 22.28-33.44 25.04-39.24 3.43L815.269 946.254c-21.768-81.192-91.981-140.108-175.719-147.446L-1764.43 588.15c-22.28-1.953-25.04-33.448-3.43-39.241L563.014-75.9951C644.206-97.7624 703.122-167.976 710.46-251.714L921.118-2655.69c1.953-22.29 33.448-25.04 39.242-3.43Zm-1451.923 517.6L1215.06-435.376c59.44 59.431 149.71 75.347 225.9 39.833L3628.19-1415.1c20.28-9.45 38.41 16.45 22.6 32.27L1944.64 323.791c-59.43 59.447-75.35 149.711-39.83 225.9L2924.36 2736.93c9.45 20.27-16.44 38.41-32.27 22.59L1185.47 1053.37c-59.44-59.426-149.71-75.342-225.896-39.83L-1227.66 2033.1c-20.28 9.45-38.41-16.45-22.59-32.27L455.891 294.208c59.43-59.447 75.346-149.712 39.832-225.9004L-523.83-2118.93c-9.453-20.27 16.445-38.41 32.267-22.59ZM-1490.16-967.3 840.888-343.046c81.198 21.745 167.322-9.603 215.552-78.454l1384.42-1976.58c12.84-18.32 41.49-4.96 35.7 16.65L1852.31-50.3796c-21.75 81.198 9.6 167.3276 78.45 215.5516L3907.34 1549.6c18.32 12.83 4.96 41.48-16.65 35.7L1559.64 961.041c-81.2-21.745-167.32 9.604-215.55 78.459L-40.3324 3016.07c-12.8352 18.33-41.4882 4.97-35.7006-16.65L548.222 668.375c21.745-81.198-9.604-167.327-78.455-215.551L-1506.81-931.6c-18.32-12.835-4.96-41.488 16.65-35.7ZM448.594-2572.37 1468.76-385.422c35.53 76.179 114.91 122.007 198.65 114.693l2404.04-209.989c22.28-1.947 30.47 28.591 10.19 38.049L1894.69 577.494c-76.18 35.535-122.01 114.912-114.69 198.652l209.99 2404.034c1.94 22.29-28.6 30.47-38.05 10.2L931.775 1003.43c-35.536-76.181-114.913-122.01-198.654-114.695L-1670.91 1098.72c-22.29 1.95-30.47-28.59-10.2-38.05L505.841 40.5117C582.019 4.9763 627.848-74.4009 620.533-158.141L410.545-2562.18c-1.947-22.28 28.591-30.47 38.049-10.19Zm-1339.983 761.86L1085.57-426.635c68.87 48.205 160.52 48.205 229.39 0L3291.92-1810.51c18.33-12.83 40.68 9.53 27.85 27.86L1935.9 194.307c-48.2 68.864-48.2 160.521 0 229.385L3319.77 2400.65c12.83 18.33-9.52 40.69-27.85 27.86L1314.96 1044.63c-68.87-48.2-160.52-48.2-229.39 0L-891.388 2428.51c-18.329 12.83-40.684-9.53-27.854-27.86L464.631 423.692c48.204-68.864 48.205-160.521 0-229.385L-919.243-1782.65c-12.829-18.33 9.526-40.69 27.854-27.86ZM-1670.91-480.721 733.122-270.733c83.74 7.315 163.117-38.514 198.652-114.692L1951.94-2572.38c9.46-20.27 39.99-12.09 38.05 10.2L1780-158.145c-7.32 83.7409 38.51 163.1181 114.69 198.6538L4081.64 1060.67c20.28 9.46 12.09 40-10.2 38.05L1667.41 888.732c-83.74-7.315-163.12 38.513-198.65 114.688L448.594 3190.37c-9.458 20.28-39.996 12.1-38.049-10.19L620.533 776.143c7.315-83.74-38.514-163.117-114.692-198.653L-1681.11-442.672c-20.27-9.458-12.09-39.996 10.2-38.049ZM-40.3323-2398.08 1344.09-421.499c48.23 68.85 134.35 100.199 215.55 78.454l2331.05-624.254c21.61-5.788 34.97 22.865 16.65 35.7L1930.76 452.825c-68.85 48.224-100.2 134.353-78.45 215.551l624.25 2331.054c5.79 21.61-22.86 34.97-35.7 16.64L1056.44 1039.5c-48.23-68.854-134.355-100.203-215.553-78.458L-1490.16 1585.3c-21.61 5.78-34.97-22.87-16.65-35.7L469.767 165.172c68.851-48.223 100.199-134.3528 78.454-215.5509L-76.0331-2381.43c-5.7874-21.61 22.8656-34.97 35.7008-16.65ZM-1227.66-1415.1 959.574-395.545c76.186 35.514 166.456 19.598 225.896-39.832L2892.09-2141.52c15.83-15.82 41.72 2.31 32.27 22.59L1904.81 68.3062c-35.52 76.1888-19.6 166.4528 39.83 225.8998L3650.79 2000.83c15.81 15.82-2.32 41.72-22.6 32.26L1440.96 1013.54c-76.19-35.514-166.46-19.598-225.9 39.83L-491.563 2759.52c-15.823 15.82-41.72-2.32-32.268-22.6L495.722 549.689c35.515-76.188 19.599-166.453-39.832-225.9L-1250.25-1382.83c-15.82-15.82 2.31-41.72 22.59-32.27ZM-1764.43 29.8499 639.55-180.808c83.738-7.338 153.951-66.254 175.719-147.446L1440.17-2659.13c5.8-21.61 37.29-18.85 39.24 3.43l210.66 2403.981c7.34 83.739 66.26 153.9519 147.45 175.7195L4168.39 548.905c21.61 5.793 18.86 37.288-3.43 39.241L1760.98 798.804c-83.74 7.338-153.95 66.254-175.72 147.446l-624.9 2330.87c-5.794 21.61-37.289 18.86-39.242-3.43L710.46 869.714c-7.338-83.738-66.254-153.951-147.446-175.719L-1767.86 69.0913c-21.61-5.7936-18.85-37.2883 3.43-39.2414ZM1294.13 309c0 51.61-41.83 93.448-93.44 93.448s-93.45-41.838-93.45-93.448c0-51.61 41.84-93.448 93.45-93.448s93.44 41.838 93.44 93.448Zm101.95 0c0 107.911-87.48 195.39-195.39 195.39-107.92 0-195.39-87.479-195.39-195.39 0-107.911 87.47-195.39 195.39-195.39 107.91 0 195.39 87.479 195.39 195.39Z" stroke="url(#b)" stroke-width="1.5" opacity=".7"/>
    <g opacity=".8" filter="url(#c)">
      <ellipse cx="1200" cy="311" rx="499" ry="386" fill="url(#d)"/>
    </g>
  </g>
  <defs>
    <radialGradient id="b" cx="0" cy="0" r="1" gradientUnits="userSpaceOnUse" gradientTransform="matrix(0 1198 -1198 0 1200.27 -.0001)">
      <stop stop-color="#212434"/>
      <stop offset=".3425" stop-color="#212434"/>
      <stop offset="1" stop-color="#212434" stop-opacity="0"/>
    </radialGradient>
    <radialGradient id="d" cx="0" cy="0" r="1" gradientUnits="userSpaceOnUse" gradientTransform="matrix(0 386 -499 0 1200 311)">
      <stop stop-color="#531754"/>
      <stop offset="1" stop-color="#0B173E" stop-opacity="0"/>
    </radialGradient>
    <clipPath id="a">
      <path fill="#fff" d="M0 0h2400v1200H0z"/>
    </clipPath>
    <filter id="c" x="581" y="-195" width="1238" height="1012" filterUnits="userSpaceOnUse" color-interpolation-filters="sRGB">
      <feFlood flood-opacity="0" result="BackgroundImageFix"/>
      <feBlend in="SourceGraphic" in2="BackgroundImageFix" result="shape"/>
      <feGaussianBlur stdDeviation="60" result="effect1_foregroundBlur_639_70"/>
    </filter>
  </defs>
</svg>