<svg width="440" height="145" viewBox="0 0 440 145" fill="none" xmlns="http://www.w3.org/2000/svg">
<path d="M0 136.903C0 135.458 0.325943 134.161 0.977829 133.013C1.62971 131.851 2.51543 130.944 3.63497 130.292C4.76869 129.64 6.02286 129.314 7.39749 129.314C9.01303 129.314 10.4231 129.704 11.6277 130.483C12.8322 131.263 13.7109 132.368 14.2635 133.8H11.9465C11.5355 132.907 10.9403 132.219 10.1609 131.738C9.39566 131.256 8.47452 131.015 7.39749 131.015C6.36297 131.015 5.43474 131.256 4.6128 131.738C3.79086 132.219 3.14606 132.907 2.6784 133.8C2.21074 134.678 1.97691 135.713 1.97691 136.903C1.97691 138.079 2.21074 139.114 2.6784 140.007C3.14606 140.885 3.79086 141.566 4.6128 142.047C5.43474 142.529 6.36297 142.77 7.39749 142.77C8.47452 142.77 9.39566 142.536 10.1609 142.069C10.9403 141.587 11.5355 140.899 11.9465 140.007H14.2635C13.7109 141.424 12.8322 142.522 11.6277 143.302C10.4231 144.067 9.01303 144.449 7.39749 144.449C6.02286 144.449 4.76869 144.131 3.63497 143.493C2.51543 142.841 1.62971 141.941 0.977829 140.793C0.325943 139.645 0 138.349 0 136.903Z" fill="url(#paint0_linear_507_172)"/>
<path d="M59.5723 144.471C58.1977 144.471 56.9435 144.152 55.8098 143.514C54.6761 142.862 53.7762 141.962 53.1101 140.814C52.4583 139.652 52.1323 138.349 52.1323 136.903C52.1323 135.458 52.4583 134.161 53.1101 133.013C53.7762 131.851 54.6761 130.951 55.8098 130.313C56.9435 129.662 58.1977 129.336 59.5723 129.336C60.9611 129.336 62.2224 129.662 63.3561 130.313C64.4898 130.951 65.3826 131.844 66.0345 132.992C66.6864 134.14 67.0123 135.443 67.0123 136.903C67.0123 138.363 66.6864 139.667 66.0345 140.814C65.3826 141.962 64.4898 142.862 63.3561 143.514C62.2224 144.152 60.9611 144.471 59.5723 144.471ZM59.5723 142.791C60.6068 142.791 61.5351 142.55 62.357 142.069C63.1931 141.587 63.845 140.899 64.3127 140.007C64.7945 139.114 65.0354 138.079 65.0354 136.903C65.0354 135.713 64.7945 134.678 64.3127 133.8C63.845 132.907 63.2002 132.219 62.3783 131.738C61.5563 131.256 60.621 131.015 59.5723 131.015C58.5236 131.015 57.5883 131.256 56.7664 131.738C55.9444 132.219 55.2925 132.907 54.8107 133.8C54.3431 134.678 54.1092 135.713 54.1092 136.903C54.1092 138.079 54.3431 139.114 54.8107 140.007C55.2925 140.899 55.9444 141.587 56.7664 142.069C57.6025 142.55 58.5378 142.791 59.5723 142.791Z" fill="url(#paint1_linear_507_172)"/>
<path d="M107.212 142.749H112.399V144.322H105.278V129.506H107.212V142.749Z" fill="url(#paint2_linear_507_172)"/>
<path d="M152.1 142.749H157.287V144.322H150.165V129.506H152.1V142.749Z" fill="url(#paint3_linear_507_172)"/>
<path d="M196.987 131.079V136.032H202.387V137.626H196.987V142.728H203.024V144.322H195.053V129.484H203.024V131.079H196.987Z" fill="url(#paint4_linear_507_172)"/>
<path d="M240.941 136.903C240.941 135.458 241.267 134.161 241.918 133.013C242.57 131.851 243.456 130.944 244.576 130.292C245.709 129.64 246.963 129.314 248.338 129.314C249.954 129.314 251.364 129.704 252.568 130.483C253.773 131.263 254.651 132.368 255.204 133.8H252.887C252.476 132.907 251.881 132.219 251.102 131.738C250.336 131.256 249.415 131.015 248.338 131.015C247.304 131.015 246.375 131.256 245.553 131.738C244.731 132.219 244.087 132.907 243.619 133.8C243.151 134.678 242.918 135.713 242.918 136.903C242.918 138.079 243.151 139.114 243.619 140.007C244.087 140.885 244.731 141.566 245.553 142.047C246.375 142.529 247.304 142.77 248.338 142.77C249.415 142.77 250.336 142.536 251.102 142.069C251.881 141.587 252.476 140.899 252.887 140.007H255.204C254.651 141.424 253.773 142.522 252.568 143.302C251.364 144.067 249.954 144.449 248.338 144.449C246.963 144.449 245.709 144.131 244.576 143.493C243.456 142.841 242.57 141.941 241.918 140.793C241.267 139.645 240.941 138.349 240.941 136.903Z" fill="url(#paint5_linear_507_172)"/>
<path d="M302.915 129.506V131.079H298.876V144.322H296.942V131.079H292.882V129.506H302.915Z" fill="url(#paint6_linear_507_172)"/>
<path d="M342.943 129.506V144.322H341.008V129.506H342.943Z" fill="url(#paint7_linear_507_172)"/>
<path d="M394.196 129.506L388.605 144.322H386.373L380.782 129.506H382.844L387.499 142.281L392.155 129.506H394.196Z" fill="url(#paint8_linear_507_172)"/>
<path d="M433.963 131.079V136.032H439.362V137.626H433.963V142.728H440V144.322H432.029V129.484H440V131.079H433.963Z" fill="url(#paint9_linear_507_172)"/>
<path d="M68.0839 9.27202C61.4611 4.8568 52.1891 2.64919 40.4888 2.64919H0.531067V3.31147L5.38781 5.07756C7.59542 5.51908 9.3615 6.62289 10.2445 8.16821C11.1276 9.71354 11.7899 12.8042 12.2314 17.4402C12.4522 22.0761 12.6729 30.2443 12.6729 41.9446V59.6055C12.6729 71.3058 12.4522 79.474 12.0106 84.11C11.5691 88.7459 10.9068 91.8366 10.0238 93.3819C9.3615 94.9272 7.59542 96.031 5.38781 96.9141L0.531067 98.4594V99.1217H47.7739V98.4594L40.268 96.9141C36.7359 96.2518 34.3075 95.148 32.9829 93.6027C31.6584 92.0574 30.7753 88.9667 30.113 84.3307C29.4507 79.474 29.23 71.3058 29.23 59.6055V34.8803C29.23 23.8422 29.4507 16.3364 29.6715 12.3627C29.8923 8.38897 30.113 6.18136 30.5546 5.29832H32.9829C41.1511 5.29832 47.5531 7.28517 52.1891 11.4796C56.8251 15.6741 59.2535 22.2969 59.2535 31.7896C59.2535 37.9709 58.1497 42.6069 55.7213 46.3598C53.2929 49.892 50.6438 52.5411 47.3324 54.0865C44.021 55.6318 40.0473 57.1771 34.9698 58.5017L35.1905 59.8263C45.5663 58.9432 53.7344 57.1771 60.1365 54.0865C66.5386 50.9958 70.9538 47.4636 73.8237 43.2692C76.6936 39.0747 78.0181 34.4388 78.0181 29.8028C78.2389 20.3101 74.9275 13.6872 68.0839 9.27202Z" fill="url(#paint10_linear_507_172)"/>
<path d="M439.404 0C437.638 0.662283 434.989 1.32457 431.677 1.76609C428.366 2.20761 423.509 2.42837 417.328 2.42837H369.202V3.09065L374.059 4.85674C376.266 5.51902 378.032 6.62283 378.915 8.16815C379.798 9.71348 380.461 12.8041 380.902 17.4401C381.344 22.0761 381.344 30.2442 381.344 41.9446V59.6054C381.344 71.3057 381.123 79.4739 380.902 84.1099C380.461 88.7459 379.798 91.8365 378.915 93.3818C378.032 94.9272 376.487 96.031 374.059 96.6933L369.202 98.4593V99.1216H415.341V98.2386L408.277 96.4725C404.965 95.5895 402.537 94.2649 401.212 92.4988C399.888 90.7327 399.005 87.2005 398.563 81.6815C398.122 76.8248 397.901 68.8774 397.68 58.0601L421.302 61.813V50.9958L397.901 54.7487C397.901 54.3072 397.901 53.6449 397.901 53.2034V34.8802C397.901 16.7778 398.122 6.84359 398.784 4.85674L408.939 6.1813C415.12 6.84359 419.756 8.16815 422.626 9.71348C425.496 11.2588 427.924 14.1287 429.911 18.1024C431.898 22.0761 434.326 28.9197 436.975 38.6331H437.638L439.845 0H439.404Z" fill="url(#paint11_linear_507_172)"/>
<path d="M159.258 87.8629C150.869 77.2664 143.363 66.4491 136.961 55.411C138.286 54.9695 139.831 54.3072 140.935 53.8657C147.337 50.7751 151.752 47.2429 154.622 43.0484C157.492 38.854 158.817 34.218 158.817 29.582C158.817 20.5308 155.505 13.908 148.882 9.27202C142.26 4.8568 132.988 2.64919 121.287 2.64919H81.1088V3.31147L85.9655 5.07756C88.1731 5.73984 89.9392 6.84365 90.8223 8.38897C91.7053 9.9343 92.3676 13.025 92.8091 17.6609C93.0299 22.0761 93.2506 30.2443 93.2506 41.9446V59.6055C93.2506 71.3058 93.0299 79.474 92.5884 84.11C92.1468 88.7459 91.4846 91.8366 90.6015 93.3819C89.7185 94.9272 88.1731 96.031 85.7448 96.6933L80.888 98.4594V99.1217H128.131V98.4594L120.625 96.6933C117.093 96.031 114.664 94.9272 113.34 93.3819C112.015 91.8366 111.132 88.7459 110.47 84.11C109.808 79.474 109.587 71.0851 109.587 59.6055V34.8803C109.587 23.8422 109.808 16.3364 110.028 12.3627C110.249 8.38897 110.47 6.18136 110.912 5.29832H113.34C121.508 5.29832 127.91 7.28517 132.546 11.4796C137.182 15.6741 139.61 22.2969 139.61 31.7896C139.61 37.9709 138.507 42.6069 136.078 46.3598C133.65 50.1128 131.001 52.5411 127.689 54.0865C125.702 55.1903 123.053 56.0733 120.183 56.9564L120.625 57.8394C123.495 63.5792 124.157 64.2415 127.469 69.7605C130.78 75.2795 134.754 81.6816 139.39 88.5252C142.26 92.7196 145.129 95.8103 147.779 97.5764C150.428 99.3425 153.739 100.446 157.713 100.446C160.583 100.446 163.011 100.226 164.998 99.784C167.206 99.3425 169.413 98.6802 172.062 97.7971V97.1348C168.972 96.031 166.543 94.7065 164.777 93.3819C163.011 92.0573 161.024 90.2913 159.258 87.8629Z" fill="url(#paint12_linear_507_172)"/>
<path d="M217.76 0.441576C192.151 0.441576 171.179 22.9592 171.179 50.9958C171.179 78.8117 191.931 101.55 217.76 101.55C243.589 101.55 264.34 79.0325 264.34 50.9958C264.34 22.9592 243.368 0.441576 217.76 0.441576ZM217.76 97.7971C203.41 97.7971 191.71 76.8249 191.71 50.7751C191.71 24.7253 203.41 3.75299 217.76 3.75299C232.109 3.75299 243.809 24.7253 243.809 50.7751C243.809 76.8249 232.109 97.7971 217.76 97.7971Z" fill="url(#paint13_linear_507_172)"/>
<path d="M320.634 0.441576C295.026 0.441576 274.054 22.9592 274.054 50.9958C274.054 78.8117 294.805 101.55 320.634 101.55C346.243 101.55 367.215 79.0325 367.215 50.9958C366.994 22.9592 346.243 0.441576 320.634 0.441576ZM320.634 97.7971C306.285 97.7971 294.585 76.8249 294.585 50.7751C294.585 24.7253 306.285 3.75299 320.634 3.75299C334.984 3.75299 346.684 24.7253 346.684 50.7751C346.684 76.8249 334.984 97.7971 320.634 97.7971Z" fill="url(#paint14_linear_507_172)"/>
<defs>
<linearGradient id="paint0_linear_507_172" x1="0" y1="129.314" x2="436.421" y2="177.134" gradientUnits="userSpaceOnUse">
<stop stop-color="#FAE4E3"/>
<stop offset="0.515625" stop-color="#F4B9FD"/>
<stop offset="1" stop-color="#A2B7F9"/>
</linearGradient>
<linearGradient id="paint1_linear_507_172" x1="0" y1="129.314" x2="436.421" y2="177.134" gradientUnits="userSpaceOnUse">
<stop stop-color="#FAE4E3"/>
<stop offset="0.515625" stop-color="#F4B9FD"/>
<stop offset="1" stop-color="#A2B7F9"/>
</linearGradient>
<linearGradient id="paint2_linear_507_172" x1="0" y1="129.314" x2="436.421" y2="177.134" gradientUnits="userSpaceOnUse">
<stop stop-color="#FAE4E3"/>
<stop offset="0.515625" stop-color="#F4B9FD"/>
<stop offset="1" stop-color="#A2B7F9"/>
</linearGradient>
<linearGradient id="paint3_linear_507_172" x1="0" y1="129.314" x2="436.421" y2="177.134" gradientUnits="userSpaceOnUse">
<stop stop-color="#FAE4E3"/>
<stop offset="0.515625" stop-color="#F4B9FD"/>
<stop offset="1" stop-color="#A2B7F9"/>
</linearGradient>
<linearGradient id="paint4_linear_507_172" x1="0" y1="129.314" x2="436.421" y2="177.134" gradientUnits="userSpaceOnUse">
<stop stop-color="#FAE4E3"/>
<stop offset="0.515625" stop-color="#F4B9FD"/>
<stop offset="1" stop-color="#A2B7F9"/>
</linearGradient>
<linearGradient id="paint5_linear_507_172" x1="0" y1="129.314" x2="436.421" y2="177.134" gradientUnits="userSpaceOnUse">
<stop stop-color="#FAE4E3"/>
<stop offset="0.515625" stop-color="#F4B9FD"/>
<stop offset="1" stop-color="#A2B7F9"/>
</linearGradient>
<linearGradient id="paint6_linear_507_172" x1="0" y1="129.314" x2="436.421" y2="177.134" gradientUnits="userSpaceOnUse">
<stop stop-color="#FAE4E3"/>
<stop offset="0.515625" stop-color="#F4B9FD"/>
<stop offset="1" stop-color="#A2B7F9"/>
</linearGradient>
<linearGradient id="paint7_linear_507_172" x1="0" y1="129.314" x2="436.421" y2="177.134" gradientUnits="userSpaceOnUse">
<stop stop-color="#FAE4E3"/>
<stop offset="0.515625" stop-color="#F4B9FD"/>
<stop offset="1" stop-color="#A2B7F9"/>
</linearGradient>
<linearGradient id="paint8_linear_507_172" x1="0" y1="129.314" x2="436.421" y2="177.134" gradientUnits="userSpaceOnUse">
<stop stop-color="#FAE4E3"/>
<stop offset="0.515625" stop-color="#F4B9FD"/>
<stop offset="1" stop-color="#A2B7F9"/>
</linearGradient>
<linearGradient id="paint9_linear_507_172" x1="0" y1="129.314" x2="436.421" y2="177.134" gradientUnits="userSpaceOnUse">
<stop stop-color="#FAE4E3"/>
<stop offset="0.515625" stop-color="#F4B9FD"/>
<stop offset="1" stop-color="#A2B7F9"/>
</linearGradient>
<linearGradient id="paint10_linear_507_172" x1="0.531067" y1="0" x2="441.386" y2="7.19841" gradientUnits="userSpaceOnUse">
<stop stop-color="#F2D0CF"/>
<stop offset="0.515625" stop-color="#F4B4FE"/>
<stop offset="1" stop-color="#9EB3F7"/>
</linearGradient>
<linearGradient id="paint11_linear_507_172" x1="0.531067" y1="0" x2="441.386" y2="7.19841" gradientUnits="userSpaceOnUse">
<stop stop-color="#F2D0CF"/>
<stop offset="0.515625" stop-color="#F4B4FE"/>
<stop offset="1" stop-color="#9EB3F7"/>
</linearGradient>
<linearGradient id="paint12_linear_507_172" x1="0.531067" y1="0" x2="441.386" y2="7.19841" gradientUnits="userSpaceOnUse">
<stop stop-color="#F2D0CF"/>
<stop offset="0.515625" stop-color="#F4B4FE"/>
<stop offset="1" stop-color="#9EB3F7"/>
</linearGradient>
<linearGradient id="paint13_linear_507_172" x1="0.531067" y1="0" x2="441.386" y2="7.19841" gradientUnits="userSpaceOnUse">
<stop stop-color="#F2D0CF"/>
<stop offset="0.515625" stop-color="#F4B4FE"/>
<stop offset="1" stop-color="#9EB3F7"/>
</linearGradient>
<linearGradient id="paint14_linear_507_172" x1="0.531067" y1="0" x2="441.386" y2="7.19841" gradientUnits="userSpaceOnUse">
<stop stop-color="#F2D0CF"/>
<stop offset="0.515625" stop-color="#F4B4FE"/>
<stop offset="1" stop-color="#9EB3F7"/>
</linearGradient>
</defs>
</svg>