<svg width="32" height="32" viewBox="0 0 32 32" fill="none" xmlns="http://www.w3.org/2000/svg">
<rect width="32" height="32" fill="#07070C"/>
<path d="M22.8013 6.94255C21.3325 5.96278 19.276 5.4729 16.6807 5.4729L7.81738 5.4729L7.81733 5.61955L8.8946 6.01153C9.38416 6.10983 9.77582 6.35477 9.97137 6.69761C10.1673 7.04044 10.314 7.72652 10.4115 8.75543C10.4602 9.78435 10.5083 11.5972 10.5073 14.1941L10.5058 18.1139C10.5049 20.7108 10.4555 22.5237 10.3569 23.5526C10.2586 24.5819 10.1114 25.2676 9.91561 25.6108C9.76853 25.9536 9.37669 26.1986 8.88702 26.3948L7.80948 26.7376L7.80942 26.8847H18.2885L18.2886 26.7376L16.6238 26.3948C15.8404 26.2477 15.3018 26.0028 15.0084 25.6596C14.7146 25.3167 14.5188 24.6306 14.3722 23.6017C14.226 22.5237 14.1776 20.7108 14.1786 18.1139L14.1806 12.6261C14.1815 10.1763 14.2312 8.51049 14.2803 7.62862C14.3297 6.74676 14.3786 6.25648 14.477 6.06068H15.0157C16.8275 6.06068 18.2474 6.50181 19.2753 7.43243C20.3033 8.36345 20.8414 9.83349 20.8406 11.9405C20.8401 13.3122 20.595 14.3411 20.0559 15.1742C19.5169 15.9582 18.9289 16.546 18.1944 16.8892C17.4599 17.2321 16.5784 17.5749 15.4517 17.869L15.5007 18.1631C17.8022 17.9669 19.6142 17.5749 21.0345 16.8892C22.4548 16.2032 23.4347 15.4192 24.0715 14.4882C24.7084 13.5572 25.0027 12.5282 25.0031 11.4993C25.0526 9.39236 24.3188 7.92271 22.8013 6.94255Z" fill="url(#paint0_linear_596_196)"/>
<defs>
<linearGradient id="paint0_linear_596_196" x1="7.8176" y1="4.88472" x2="24.6573" y2="26.7418" gradientUnits="userSpaceOnUse">
<stop stop-color="#F2D0CF"/>
<stop offset="0.515625" stop-color="#F4B4FE"/>
<stop offset="1" stop-color="#9EB3F7"/>
</linearGradient>
</defs>
</svg>